<svg width="22" height="22" viewBox="0 0 22 22" fill="none" xmlns="http://www.w3.org/2000/svg">
<path d="M11.0002 10.9999C9.5335 10.9999 8.27794 10.4777 7.2335 9.43325C6.18905 8.38881 5.66683 7.13325 5.66683 5.66659C5.66683 4.19992 6.18905 2.94436 7.2335 1.89992C8.27794 0.855474 9.5335 0.333252 11.0002 0.333252C12.4668 0.333252 13.7224 0.855474 14.7668 1.89992C15.8113 2.94436 16.3335 4.19992 16.3335 5.66659C16.3335 7.13325 15.8113 8.38881 14.7668 9.43325C13.7224 10.4777 12.4668 10.9999 11.0002 10.9999ZM0.333496 18.9999V17.9333C0.333496 17.1777 0.527941 16.4833 0.916829 15.8499C1.30572 15.2166 1.82239 14.7333 2.46683 14.3999C3.84461 13.711 5.24461 13.1944 6.66683 12.8499C8.08905 12.5055 9.5335 12.3333 11.0002 12.3333C12.4668 12.3333 13.9113 12.5055 15.3335 12.8499C16.7557 13.1944 18.1557 13.711 19.5335 14.3999C20.1779 14.7333 20.6946 15.2166 21.0835 15.8499C21.4724 16.4833 21.6668 17.1777 21.6668 17.9333V18.9999C21.6668 19.7333 21.4057 20.361 20.8835 20.8833C20.3613 21.4055 19.7335 21.6666 19.0002 21.6666H3.00016C2.26683 21.6666 1.63905 21.4055 1.11683 20.8833C0.594607 20.361 0.333496 19.7333 0.333496 18.9999ZM3.00016 18.9999H19.0002V17.9333C19.0002 17.6888 18.9391 17.4666 18.8168 17.2666C18.6946 17.0666 18.5335 16.911 18.3335 16.7999C17.1335 16.1999 15.9224 15.7499 14.7002 15.4499C13.4779 15.1499 12.2446 14.9999 11.0002 14.9999C9.75572 14.9999 8.52239 15.1499 7.30016 15.4499C6.07794 15.7499 4.86683 16.1999 3.66683 16.7999C3.46683 16.911 3.30572 17.0666 3.1835 17.2666C3.06127 17.4666 3.00016 17.6888 3.00016 17.9333V18.9999ZM11.0002 8.33325C11.7335 8.33325 12.3613 8.07214 12.8835 7.54992C13.4057 7.0277 13.6668 6.39992 13.6668 5.66659C13.6668 4.93325 13.4057 4.30547 12.8835 3.78325C12.3613 3.26103 11.7335 2.99992 11.0002 2.99992C10.2668 2.99992 9.63905 3.26103 9.11683 3.78325C8.59461 4.30547 8.3335 4.93325 8.3335 5.66659C8.3335 6.39992 8.59461 7.0277 9.11683 7.54992C9.63905 8.07214 10.2668 8.33325 11.0002 8.33325Z" fill="#EDEDED"/>
</svg>
